<svg width="32" height="33" viewBox="0 0 32 33" fill="none" xmlns="http://www.w3.org/2000/svg">
<path d="M15.9125 3.48975C13.2899 3.48975 10.7262 4.26744 8.54555 5.72448C6.36493 7.18152 4.66535 9.25247 3.66172 11.6754C2.65809 14.0984 2.39549 16.7646 2.90714 19.3368C3.41878 21.909 4.68169 24.2717 6.53615 26.1262C8.39062 27.9807 10.7533 29.2436 13.3256 29.7552C15.8978 30.2669 18.5639 30.0043 20.9869 29.0006C23.4099 27.997 25.4808 26.2974 26.9379 24.1168C28.3949 21.9362 29.1726 19.3725 29.1726 16.7499C29.1726 15.0085 28.8296 13.2842 28.1633 11.6754C27.4969 10.0667 26.5201 8.60487 25.2888 7.37355C24.0575 6.14223 22.5957 5.1655 20.9869 4.49911C19.3781 3.83273 17.6538 3.48975 15.9125 3.48975ZM22.158 13.7133L14.2019 21.6694C14.0787 21.7937 13.932 21.8923 13.7704 21.9596C13.6088 22.027 13.4355 22.0616 13.2605 22.0616C13.0854 22.0616 12.9121 22.027 12.7505 21.9596C12.5889 21.8923 12.4423 21.7937 12.319 21.6694L9.66696 19.0174C9.54332 18.8937 9.44525 18.747 9.37834 18.5854C9.31143 18.4239 9.27699 18.2507 9.27699 18.0759C9.27699 17.901 9.31143 17.7279 9.37834 17.5664C9.44525 17.4048 9.54332 17.2581 9.66696 17.1344C9.7906 17.0108 9.93737 16.9127 10.0989 16.8458C10.2604 16.7789 10.4336 16.7445 10.6084 16.7445C10.7833 16.7445 10.9564 16.7789 11.118 16.8458C11.2795 16.9127 11.4263 17.0108 11.5499 17.1344L13.2605 18.8582L20.2751 11.8304C20.5248 11.5807 20.8634 11.4404 21.2165 11.4404C21.5697 11.4404 21.9083 11.5807 22.158 11.8304C22.4077 12.0801 22.548 12.4187 22.548 12.7718C22.548 13.125 22.4077 13.4636 22.158 13.7133Z" fill="#0B1B35"/>
</svg>
